<?xml version="1.0" encoding="UTF-8" standalone="no"?>
<!-- Created with Inkscape (http://www.inkscape.org/) -->

<svg
   xmlns:dc="http://purl.org/dc/elements/1.1/"
   xmlns:cc="http://creativecommons.org/ns#"
   xmlns:rdf="http://www.w3.org/1999/02/22-rdf-syntax-ns#"
   xmlns:svg="http://www.w3.org/2000/svg"
   xmlns="http://www.w3.org/2000/svg"
   xmlns:xlink="http://www.w3.org/1999/xlink"
   xmlns:sodipodi="http://sodipodi.sourceforge.net/DTD/sodipodi-0.dtd"
   xmlns:inkscape="http://www.inkscape.org/namespaces/inkscape"
   id="svg2"
   version="1.1"
   inkscape:version="0.91 r13725"
   width="128"
   height="128"
   xml:space="preserve"
   sodipodi:docname="Logo.svg"
   inkscape:export-filename="C:\Users\Jens\Documents\Visual Studio 2017\Projects\DMXforDummies\Logo-16.png"
   inkscape:export-xdpi="11.25"
   inkscape:export-ydpi="11.25"><metadata
     id="metadata8"><rdf:RDF><cc:Work
         rdf:about=""><dc:format>image/svg+xml</dc:format><dc:type
           rdf:resource="http://purl.org/dc/dcmitype/StillImage" /><dc:title></dc:title></cc:Work></rdf:RDF></metadata><defs
     id="defs6"><linearGradient
       id="linearGradient4242"
       inkscape:collect="always"><stop
         id="stop4244"
         offset="0"
         style="stop-color:#ff1919;stop-opacity:1" /><stop
         id="stop4246"
         offset="1"
         style="stop-color:#fa0000;stop-opacity:0" /></linearGradient><linearGradient
       inkscape:collect="always"
       id="linearGradient4210"><stop
         style="stop-color:#002ef8;stop-opacity:1"
         offset="0"
         id="stop4212" /><stop
         style="stop-color:#000000;stop-opacity:0;"
         offset="1"
         id="stop4214" /></linearGradient><clipPath
       clipPathUnits="userSpaceOnUse"
       id="clipPath16"><path
         d="m 0,841.89 595.28,0 L 595.28,0 0,0 0,841.89 Z"
         id="path18"
         inkscape:connector-curvature="0" /></clipPath><clipPath
       clipPathUnits="userSpaceOnUse"
       id="clipPath32"><path
         d="m 239.328,463.6 c -4.56,0 -8.943,0.855 -13.023,2.423 l 0,0 c -1.543,-3.499 -4.375,-6.213 -7.825,-7.41 l 0,0 c -0.035,-0.705 -0.056,-1.418 -0.056,-2.13 l 0,0 c 0,-15.624 8.582,-29.156 20.904,-35.339 l 0,0 c 12.323,6.183 20.912,19.715 20.912,35.339 l 0,0 c 0,0.712 -0.021,1.425 -0.056,2.13 l 0,0 c -3.45,1.197 -6.281,3.911 -7.827,7.41 l 0,0 c -4.078,-1.568 -8.469,-2.423 -13.029,-2.423"
         id="path34"
         inkscape:connector-curvature="0" /></clipPath><clipPath
       clipPathUnits="userSpaceOnUse"
       id="clipPath44"><path
         d="m 0,841.89 595.28,0 L 595.28,0 0,0 0,841.89 Z"
         id="path46"
         inkscape:connector-curvature="0" /></clipPath><linearGradient
       inkscape:collect="always"
       xlink:href="#linearGradient4242"
       id="linearGradient4216"
       x1="-7.7791829"
       y1="108.40664"
       x2="82.559723"
       y2="25.094097"
       gradientUnits="userSpaceOnUse" /><linearGradient
       gradientTransform="matrix(-1.1065207,0,0,1.1065207,71.125066,-21.519286)"
       inkscape:collect="always"
       xlink:href="#linearGradient4210"
       id="linearGradient4216-1"
       x1="-7.7791829"
       y1="108.40664"
       x2="82.559723"
       y2="25.094097"
       gradientUnits="userSpaceOnUse" /></defs><sodipodi:namedview
     pagecolor="#ffffff"
     bordercolor="#666666"
     borderopacity="1"
     objecttolerance="10"
     gridtolerance="10"
     guidetolerance="10"
     inkscape:pageopacity="0"
     inkscape:pageshadow="2"
     inkscape:window-width="1920"
     inkscape:window-height="1027"
     id="namedview4"
     showgrid="false"
     inkscape:zoom="3.1879954"
     inkscape:cx="134.25337"
     inkscape:cy="84.713748"
     inkscape:window-x="-8"
     inkscape:window-y="-8"
     inkscape:window-maximized="1"
     inkscape:current-layer="g10" /><g
     id="g10"
     inkscape:groupmode="layer"
     inkscape:label="AV_Logo_offiziell"
     transform="matrix(1.25,0,0,-1.25,0,127.99995)"><path
       style="opacity:0.28900003;fill:url(#linearGradient4216);fill-opacity:1;fill-rule:evenodd;stroke:none;stroke-width:0.80000001px;stroke-linecap:butt;stroke-linejoin:miter;stroke-opacity:1"
       d="m 63.879248,14.90512 c -28.689503,35.302086 -95.970197,117.71472 -95.970197,117.71472 0,0 83.911931,-57.066457 119.392589,-78.677404 z"
       id="path3400"
       inkscape:connector-curvature="0"
       sodipodi:nodetypes="cccc" /><g
       id="g3380"
       transform="translate(-165.37628,-412.37604)"><g
         id="g12"><g
           clip-path="url(#clipPath16)"
           id="g14"><g
             transform="translate(239.4336,421.0698)"
             id="g20"><path
               id="path22"
               style="fill:#e43432;fill-opacity:1;fill-rule:nonzero;stroke:none"
               d="m 0,0 c 12.49,6.23 21.197,19.863 21.197,35.605 0,0.719 -0.019,1.437 -0.056,2.147 -3.496,1.206 -6.368,3.94 -7.932,7.466 C 9.074,43.639 4.623,42.776 0,42.776 c -4.623,0 -9.066,0.863 -13.201,2.442 -1.565,-3.526 -4.436,-6.26 -7.932,-7.466 -0.037,-0.71 -0.058,-1.428 -0.058,-2.147 C -21.191,19.863 -12.49,6.23 0,0"
               inkscape:connector-curvature="0" /></g><g
             transform="translate(239.4336,421.0698)"
             id="g24"><path
               id="path26"
               style="fill:none;stroke:#222222;stroke-width:0.56;stroke-linecap:butt;stroke-linejoin:miter;stroke-miterlimit:4;stroke-dasharray:none;stroke-opacity:1"
               d="m 0,0 c 12.49,6.23 21.197,19.863 21.197,35.605 0,0.719 -0.019,1.437 -0.056,2.147 -3.496,1.206 -6.368,3.94 -7.932,7.466 C 9.074,43.639 4.623,42.776 0,42.776 c -4.623,0 -9.066,0.863 -13.201,2.442 -1.565,-3.526 -4.436,-6.26 -7.932,-7.466 -0.037,-0.71 -0.058,-1.428 -0.058,-2.147 C -21.191,19.863 -12.49,6.23 0,0 Z"
               inkscape:connector-curvature="0" /></g></g></g><g
         id="g28"><g
           clip-path="url(#clipPath32)"
           id="g30"><g
             transform="translate(256.7207,435.4526)"
             id="g36"><path
               id="path38"
               style="fill:#ffffff;fill-opacity:1;fill-rule:nonzero;stroke:none"
               d="M 0,0 -30.721,30.907 -38.135,23.447 -7.414,-7.461 0,0 Z"
               inkscape:connector-curvature="0" /></g></g></g><g
         id="g40"><g
           clip-path="url(#clipPath44)"
           id="g42"><g
             transform="translate(226.2324,466.2876)"
             id="g48"><path
               id="path50"
               style="fill:none;stroke:#222222;stroke-width:0.56;stroke-linecap:butt;stroke-linejoin:miter;stroke-miterlimit:4;stroke-dasharray:none;stroke-opacity:1"
               d="M 0,0 29.551,-29.499"
               inkscape:connector-curvature="0" /></g><g
             transform="translate(218.3008,458.8218)"
             id="g52"><path
               id="path54"
               style="fill:none;stroke:#222222;stroke-width:0.56;stroke-linecap:butt;stroke-linejoin:miter;stroke-miterlimit:4;stroke-dasharray:none;stroke-opacity:1"
               d="M 0,0 30.824,-30.805"
               inkscape:connector-curvature="0" /></g></g></g></g><path
       style="opacity:0.28900003;fill:url(#linearGradient4216-1);fill-opacity:1;fill-rule:evenodd;stroke:none;stroke-width:0.80000001px;stroke-linecap:butt;stroke-linejoin:miter;stroke-opacity:1"
       d="M 0.44136026,-5.0264636 C 32.186883,34.036026 106.63435,125.22731 106.63435,125.22731 c 0,0 -92.850276,-63.145217 -132.110352,-87.058178 z"
       id="path3400-6"
       inkscape:connector-curvature="0"
       sodipodi:nodetypes="cccc" /></g></svg>